<?xml version="1.0" standalone="no"?>
<!DOCTYPE svg PUBLIC "-//W3C//DTD SVG 20010904//EN"
 "http://www.w3.org/TR/2001/REC-SVG-20010904/DTD/svg10.dtd">
<svg version="1.0" xmlns="http://www.w3.org/2000/svg"
 width="310.000000pt" height="310.000000pt" viewBox="0 0 310.000000 310.000000"
 preserveAspectRatio="xMidYMid meet">
<metadata>
Created by potrace 1.16, written by Peter Selinger 2001-2019
</metadata>
<g transform="translate(0.000000,310.000000) scale(0.100000,-0.100000)"
fill="#000000" stroke="none">
<path d="M1201 2156 l-144 -84 -70 -122 c-38 -66 -67 -124 -64 -127 3 -3 100
49 216 116 115 66 214 121 220 121 5 0 109 -58 231 -130 121 -71 223 -130 225
-130 3 0 5 39 5 88 l0 87 -229 133 c-126 72 -233 132 -237 132 -5 0 -74 -38
-153 -84z"/>
<path d="M2030 1759 l0 -256 -142 -86 c-79 -47 -185 -108 -235 -137 -51 -29
-93 -54 -93 -55 0 -5 141 -85 149 -85 3 0 110 60 236 134 l230 134 3 172 2
171 -75 132 -75 132 0 -256z"/>
<path d="M1143 1706 l-73 -41 3 -275 2 -274 145 -83 145 -82 149 -1 c126 0
147 2 137 14 -6 8 -25 19 -41 26 -16 7 -27 17 -23 23 3 5 1 7 -5 4 -14 -9
-123 54 -115 66 3 6 1 7 -5 3 -6 -4 -61 21 -122 56 l-110 62 0 273 c0 150 -3
273 -7 272 -5 -1 -41 -20 -80 -43z"/>
<path d="M819 503 l-35 -188 29 -3 c33 -4 47 10 47 46 0 18 6 22 29 22 29 0
41 -14 41 -51 0 -15 7 -19 35 -19 19 0 35 3 35 8 0 4 -16 88 -35 187 -19 99
-35 181 -35 183 0 1 -17 2 -38 2 l-37 0 -36 -187z"/>
<path d="M1030 501 l0 -191 30 0 c30 0 30 1 30 55 l0 54 40 11 c54 14 80 56
80 127 0 94 -26 122 -122 130 l-58 6 0 -192z"/>
<path d="M1240 500 l0 -190 115 0 114 0 17 57 17 57 16 -54 c15 -51 19 -55 49
-58 41 -4 41 4 1 107 l-32 80 32 84 c39 104 39 109 -1 105 -30 -3 -34 -8 -48
-57 l-17 -53 -14 53 c-14 52 -15 54 -52 57 -20 2 -37 1 -37 -1 0 -3 16 -46 35
-95 l35 -91 -34 -88 c-19 -48 -35 -78 -35 -65 -1 19 -6 22 -46 22 l-45 0 0 55
c0 54 0 55 30 55 25 0 30 4 30 25 0 21 -5 25 -30 25 -29 0 -30 1 -30 50 l0 50
40 0 c38 0 40 2 40 30 l0 30 -75 0 -75 0 0 -190z"/>
<path d="M1730 500 l0 -190 104 0 c110 0 116 3 116 51 0 14 7 19 29 19 29 0
41 -14 41 -51 0 -15 7 -19 35 -19 19 0 35 3 35 8 0 4 -16 88 -35 187 -19 99
-35 181 -35 183 0 1 -17 2 -38 2 l-37 0 -30 -160 -30 -160 -42 0 -43 0 0 160
0 160 -35 0 -35 0 0 -190z"/>
<path d="M2120 500 l0 -190 48 1 c64 0 114 19 130 49 18 35 10 120 -13 137
-17 12 -17 14 -2 31 19 21 23 92 7 122 -12 22 -68 40 -127 40 l-43 0 0 -190z"/>
</g>
</svg>
