<?xml version="1.0" encoding="utf-8"?>
<svg width="512" height="512" style="overflow: visible;" viewBox="0 0 512 512" data-svgdocument="" id="_H2PZKXEvvLZQOIIDUMGFZ" class="fl-svgdocument" x="0" y="0" data-bbox="158.87738076689493 182.4294539970341 190.9582571455212 146.7242325264034" xmlns="http://www.w3.org/2000/svg">
  <rect data-uid="o_f3jcnln1l_4" data-fl-background="" x="0" y="0" width="512" height="512" style="fill: none;"/>
  <g transform="matrix(3.846068, 0, 0, 3.846068, -773.451172, -576.309937)" data-uid="o_f3jcnln1l_5" style="">
    <path stroke="none" fill="#6ebfc2" transform="matrix(1.6727008819580078, 0, 0, 1.6727008819580078, 191.53138732910156, 140.7362518310547)" stroke-width="1" data-type="polygon" d="M71 48.7L71 18.2L54.8 9L38.7 9L63 22.8L63 36.7L63 53.3Z" data-uid="o_f3jcnln1l_6"/>
    <path stroke="none" fill="#6ebfc2" transform="matrix(1.6727008819580078, 0, 0, 1.6727008819580078, 192.14085388183594, 142.19338989257812)" stroke-width="1" data-type="polygon" d="M29 66L54.8 81L54.7 81L55.1 81.3L71.7 71.7L79.7 57.8L55.3 72L29 56.8Z" data-uid="o_f3jcnln1l_7"/>
    <path stroke="none" fill="#d15641" transform="matrix(1.6727008819580078, 0, 0, 1.6727008819580078, 191.7582550048828, 142.4807586669922)" stroke-width="1" data-type="polygon" d="M61.2 57L61.3 57L46.9 65.2L54.8 69.8L81 54.5L81 35.2L73 21.3L73 49.8Z" data-uid="o_f3jcnln1l_8"/>
    <path stroke="none" fill="#d15641" transform="matrix(1.6727008819580078, 0, 0, 1.6727008819580078, 191.8064727783203, 141.25001525878906)" stroke-width="1" data-type="polygon" d="M61 23.9L34.8 8.7L18.2 18.3L10.2 32.3L35 18L47 25L46.8 25L61 33.2Z" data-uid="o_f3jcnln1l_9"/>
    <path stroke="none" fill="#6ebfc2" transform="matrix(1.6727008819580078, 0, 0, 1.6727008819580078, 192.1405029296875, 141.91903686523438)" stroke-width="1" data-type="polygon" d="M35.2 20.3L9 35.6L9 54.8L17 68.7L17 40.2L28.8 33.2L28.8 33.2L43.2 24.9Z" data-uid="o_f3jcnln1l_10"/>
    <path stroke="none" fill="#d15641" transform="matrix(1.6727008819580078, 0, 0, 1.6727008819580078, 192.1409149169922, 141.25001525878906)" stroke-width="1" data-type="polygon" d="M19 41.3L19 71.8L35.2 81L51.4 81L27 67.2L27 53.3L27 36.7Z" data-uid="o_f3jcnln1l_11"/>
  </g>
</svg>